<svg xmlns="http://www.w3.org/2000/svg" width="1920" height="1352" viewBox="0 0 1920 1352" fill="none" style="&#10;    width: 100vw;&#10;    height: 100vh;&#10;">
<path d="M1964.54 222.265C1920.36 256.657 1856.67 248.723 1822.27 204.542C1787.88 160.362 1795.82 96.6657 1840 62.2732C1884.18 27.8806 1947.87 35.8154 1982.26 79.9959C2016.66 124.176 2008.72 187.872 1964.54 222.265ZM1868.01 98.257C1843.7 117.179 1839.33 152.223 1858.26 176.53C1877.18 200.838 1912.22 205.203 1936.53 186.281C1960.84 167.359 1965.2 132.315 1946.28 108.008C1927.36 83.7005 1892.31 79.335 1868.01 98.257Z" fill="url(#paint0_linear)" fill-opacity="0.3"/>
<path d="M326.542 807.265C282.362 841.657 218.666 833.723 184.273 789.542C149.881 745.362 157.815 681.666 201.996 647.273C246.176 612.881 309.872 620.815 344.265 664.996C378.657 709.176 370.723 772.872 326.542 807.265ZM230.008 683.257C205.7 702.179 201.335 737.223 220.257 761.53C239.179 785.838 274.223 790.203 298.53 771.281C322.838 752.359 327.203 717.315 308.281 693.008C289.359 668.701 254.315 664.335 230.008 683.257Z" fill="url(#paint1_linear)" fill-opacity="0.3"/>
<path d="M220.833 725.734C101.423 818.69 -70.7335 797.244 -163.689 677.833C-256.645 558.423 -235.199 386.266 -115.788 293.311C3.62188 200.355 175.778 221.801 268.734 341.212C361.69 460.622 340.244 632.778 220.833 725.734ZM-40.0786 390.567C-105.776 441.71 -117.575 536.427 -66.4325 602.124C-15.2904 667.821 79.4265 679.62 145.124 628.477C210.821 577.335 222.62 482.618 171.477 416.921C120.335 351.224 25.6184 339.425 -40.0786 390.567Z" fill="url(#paint2_linear)" fill-opacity="0.5"/>
<path d="M1946.83 1182.73C1827.42 1275.69 1655.27 1254.24 1562.31 1134.83C1469.36 1015.42 1490.8 843.266 1610.21 750.311C1729.62 657.355 1901.78 678.801 1994.73 798.212C2087.69 917.622 2066.24 1089.78 1946.83 1182.73ZM1666.83 823.038C1587.58 884.726 1573.35 998.974 1635.04 1078.22C1696.73 1157.46 1810.97 1171.7 1890.22 1110.01C1969.46 1048.32 1983.7 934.071 1922.01 854.826C1860.32 775.582 1746.07 761.35 1666.83 823.038Z" fill="url(#paint3_linear)" fill-opacity="0.5"/>
<defs>
<linearGradient id="paint0_linear" x1="1840" y1="62.2732" x2="1964.54" y2="222.265" gradientUnits="userSpaceOnUse">
<stop stop-color="#A1C4FD"/>
<stop offset="1" stop-color="#C2E9FB"/>
</linearGradient>
<linearGradient id="paint1_linear" x1="201.996" y1="647.273" x2="326.542" y2="807.265" gradientUnits="userSpaceOnUse">
<stop stop-color="#A1C4FD"/>
<stop offset="1" stop-color="#C2E9FB"/>
</linearGradient>
<linearGradient id="paint2_linear" x1="-115.789" y1="293.311" x2="220.833" y2="725.734" gradientUnits="userSpaceOnUse">
<stop stop-color="#A1C4FD"/>
<stop offset="1" stop-color="#C2E9FB"/>
</linearGradient>
<linearGradient id="paint3_linear" x1="1610.21" y1="750.311" x2="1946.83" y2="1182.73" gradientUnits="userSpaceOnUse">
<stop stop-color="#A1C4FD"/>
<stop offset="1" stop-color="#C2E9FB"/>
</linearGradient>
</defs>
</svg><svg xmlns="http://www.w3.org/2000/svg" width="1920" height="1352" viewBox="0 0 1920 1352" fill="none" style="&#10;    width: 100vw;&#10;    height: 100vh;&#10;">
<path d="M1964.54 222.265C1920.36 256.657 1856.67 248.723 1822.27 204.542C1787.88 160.362 1795.82 96.6657 1840 62.2732C1884.18 27.8806 1947.87 35.8154 1982.26 79.9959C2016.66 124.176 2008.72 187.872 1964.54 222.265ZM1868.01 98.257C1843.7 117.179 1839.33 152.223 1858.26 176.53C1877.18 200.838 1912.22 205.203 1936.53 186.281C1960.84 167.359 1965.2 132.315 1946.28 108.008C1927.36 83.7005 1892.31 79.335 1868.01 98.257Z" fill="url(#paint0_linear)" fill-opacity="0.3"/>
<path d="M326.542 807.265C282.362 841.657 218.666 833.723 184.273 789.542C149.881 745.362 157.815 681.666 201.996 647.273C246.176 612.881 309.872 620.815 344.265 664.996C378.657 709.176 370.723 772.872 326.542 807.265ZM230.008 683.257C205.7 702.179 201.335 737.223 220.257 761.53C239.179 785.838 274.223 790.203 298.53 771.281C322.838 752.359 327.203 717.315 308.281 693.008C289.359 668.701 254.315 664.335 230.008 683.257Z" fill="url(#paint1_linear)" fill-opacity="0.3"/>
<path d="M220.833 725.734C101.423 818.69 -70.7335 797.244 -163.689 677.833C-256.645 558.423 -235.199 386.266 -115.788 293.311C3.62188 200.355 175.778 221.801 268.734 341.212C361.69 460.622 340.244 632.778 220.833 725.734ZM-40.0786 390.567C-105.776 441.71 -117.575 536.427 -66.4325 602.124C-15.2904 667.821 79.4265 679.62 145.124 628.477C210.821 577.335 222.62 482.618 171.477 416.921C120.335 351.224 25.6184 339.425 -40.0786 390.567Z" fill="url(#paint2_linear)" fill-opacity="0.5"/>
<path d="M1946.83 1182.73C1827.42 1275.69 1655.27 1254.24 1562.31 1134.83C1469.36 1015.42 1490.8 843.266 1610.21 750.311C1729.62 657.355 1901.78 678.801 1994.73 798.212C2087.69 917.622 2066.24 1089.78 1946.83 1182.73ZM1666.83 823.038C1587.58 884.726 1573.35 998.974 1635.04 1078.22C1696.73 1157.46 1810.97 1171.7 1890.22 1110.01C1969.46 1048.32 1983.7 934.071 1922.01 854.826C1860.32 775.582 1746.07 761.35 1666.83 823.038Z" fill="url(#paint3_linear)" fill-opacity="0.5"/>
<defs>
<linearGradient id="paint0_linear" x1="1840" y1="62.2732" x2="1964.54" y2="222.265" gradientUnits="userSpaceOnUse">
<stop stop-color="#A1C4FD"/>
<stop offset="1" stop-color="#C2E9FB"/>
</linearGradient>
<linearGradient id="paint1_linear" x1="201.996" y1="647.273" x2="326.542" y2="807.265" gradientUnits="userSpaceOnUse">
<stop stop-color="#A1C4FD"/>
<stop offset="1" stop-color="#C2E9FB"/>
</linearGradient>
<linearGradient id="paint2_linear" x1="-115.789" y1="293.311" x2="220.833" y2="725.734" gradientUnits="userSpaceOnUse">
<stop stop-color="#A1C4FD"/>
<stop offset="1" stop-color="#C2E9FB"/>
</linearGradient>
<linearGradient id="paint3_linear" x1="1610.21" y1="750.311" x2="1946.83" y2="1182.73" gradientUnits="userSpaceOnUse">
<stop stop-color="#A1C4FD"/>
<stop offset="1" stop-color="#C2E9FB"/>
</linearGradient>
</defs>
</svg>