<svg xmlns="http://www.w3.org/2000/svg" xmlns:xlink="http://www.w3.org/1999/xlink" viewBox="0 0 97.29 110.98"><defs><style>.cls-1{filter:url(#AI_GaussianBlur_4);}.cls-2{fill:#93c5fd;}.cls-3{fill:#fde047;}.cls-4{fill:#ef4444;}.cls-5{fill:#34d399;}.cls-6{fill:#a78bfa;}.cls-7{fill:#f472b6;}</style><filter id="AI_GaussianBlur_4" name="AI_GaussianBlur_4"><feGaussianBlur stdDeviation="4"/></filter></defs><g id="Layer_2" data-name="Layer 2"><g id="Layer_1-2" data-name="Layer 1"><g class="cls-1"><polygon class="cls-2" points="61.1 33.51 48.6 55.16 36.1 33.51 48.6 5.16 61.1 33.51"/><polygon class="cls-3" points="91.91 30.16 73.6 55.16 48.6 55.16 61.1 33.51 91.91 30.16"/><polygon class="cls-4" points="91.91 80.16 61.1 76.81 48.6 55.16 73.6 55.16 91.91 80.16"/><polygon class="cls-5" points="61.1 76.81 48.6 105.16 36.1 76.81 48.6 55.16 61.1 76.81"/><polygon class="cls-6" points="48.6 55.16 36.1 76.81 5.3 80.16 23.6 55.16 48.6 55.16"/><polygon class="cls-7" points="48.6 55.16 23.6 55.16 5.3 30.16 36.1 33.51 48.6 55.16"/><path class="cls-2" d="M56.22,13.52a2.07,2.07,0,0,1,0-2.7,2.07,2.07,0,0,1,0,2.7Z" transform="translate(-7.61 -9.95)"/><path class="cls-3" d="M100.27,39.76a2.07,2.07,0,0,1,2.44-1.16,2,2,0,0,1-1,1A2,2,0,0,1,100.27,39.76Z" transform="translate(-7.61 -9.95)"/><path class="cls-4" d="M102.37,92a2.07,2.07,0,0,1-2.24-1.49,2,2,0,0,1,1.4.33A2,2,0,0,1,102.37,92Z" transform="translate(-7.61 -9.95)"/><path class="cls-5" d="M56.22,119.05a2.06,2.06,0,0,1,0-2.69,2.06,2.06,0,0,1,0,2.69Z" transform="translate(-7.61 -9.95)"/><path class="cls-6" d="M9.34,92.31a2,2,0,0,1,.87-1.14,1.92,1.92,0,0,1,1.4-.3A2,2,0,0,1,10.74,92,1.94,1.94,0,0,1,9.34,92.31Z" transform="translate(-7.61 -9.95)"/><path class="cls-7" d="M12.34,39.74a2.07,2.07,0,0,1-2.23-1.51,2,2,0,0,1,1.4.35A2,2,0,0,1,12.34,39.74Z" transform="translate(-7.61 -9.95)"/></g><polygon class="cls-2" points="61.1 33.8 48.6 55.45 36.1 33.8 48.6 5.45 61.1 33.8"/><polygon class="cls-3" points="91.91 30.45 73.6 55.45 48.6 55.45 61.1 33.8 91.91 30.45"/><polygon class="cls-4" points="91.91 80.45 61.1 77.1 48.6 55.45 73.6 55.45 91.91 80.45"/><polygon class="cls-5" points="61.1 77.1 48.6 105.45 36.1 77.1 48.6 55.45 61.1 77.1"/><polygon class="cls-6" points="48.6 55.45 36.1 77.1 5.3 80.45 23.6 55.45 48.6 55.45"/><polygon class="cls-7" points="48.6 55.45 23.6 55.45 5.3 30.45 36.1 33.8 48.6 55.45"/><path class="cls-2" d="M56.67,13a1.5,1.5,0,0,0,0-3,1.5,1.5,0,0,0,0,3Z" transform="translate(-7.61 -9.95)"/><path class="cls-3" d="M102.9,40.21a1.5,1.5,0,0,0,0-3,1.5,1.5,0,0,0,0,3Z" transform="translate(-7.61 -9.95)"/><path class="cls-4" d="M103.45,93.41a1.5,1.5,0,0,0,0-3,1.5,1.5,0,0,0,0,3Z" transform="translate(-7.61 -9.95)"/><path class="cls-5" d="M55.76,120.93a1.5,1.5,0,0,0,0-3,1.5,1.5,0,0,0,0,3Z" transform="translate(-7.61 -9.95)"/><path class="cls-6" d="M9.06,93.87a1.5,1.5,0,0,0,0-3,1.5,1.5,0,0,0,0,3Z" transform="translate(-7.61 -9.95)"/><path class="cls-7" d="M9.15,40.46a1.5,1.5,0,0,0,0-3,1.5,1.5,0,0,0,0,3Z" transform="translate(-7.61 -9.95)"/></g></g></svg>